<?xml version="1.0" encoding="utf-8"?>
<!-- Generator: Adobe Illustrator 16.0.0, SVG Export Plug-In . SVG Version: 6.00 Build 0)  -->
<!DOCTYPE svg PUBLIC "-//W3C//DTD SVG 1.1//EN" "http://www.w3.org/Graphics/SVG/1.1/DTD/svg11.dtd">
<svg version="1.1" id="레이어_1" xmlns="http://www.w3.org/2000/svg" xmlns:xlink="http://www.w3.org/1999/xlink" x="0px"
	 y="0px" width="11.997px" height="11.995px" viewBox="0 0 11.997 11.995" enable-background="new 0 0 11.997 11.995"
	 xml:space="preserve">
<path fill="#A7A7A7" d="M8.249,5.998l3.377-3.377c0.494-0.498,0.494-1.305,0-1.803l-0.451-0.447c-0.498-0.494-1.302-0.494-1.8,0
	L5.999,3.749L2.621,0.371c-0.499-0.493-1.301-0.493-1.8,0l-0.45,0.447c-0.495,0.498-0.495,1.305,0,1.803l3.376,3.377L0.371,9.375
	c-0.495,0.498-0.495,1.302,0,1.8l0.45,0.45c0.499,0.494,1.302,0.494,1.8,0l3.378-3.378l3.376,3.378c0.498,0.494,1.302,0.494,1.8,0
	l0.451-0.45c0.494-0.498,0.494-1.302,0-1.8L8.249,5.998z"/>
</svg>
