<?xml version="1.0" encoding="utf-8"?>
<!-- Generator: Adobe Illustrator 16.0.0, SVG Export Plug-In . SVG Version: 6.00 Build 0)  -->
<!DOCTYPE svg PUBLIC "-//W3C//DTD SVG 1.1//EN" "http://www.w3.org/Graphics/SVG/1.1/DTD/svg11.dtd">
<svg version="1.1" id="레이어_1" xmlns="http://www.w3.org/2000/svg" xmlns:xlink="http://www.w3.org/1999/xlink" x="0px"
	 y="0px" width="9px" height="9px" viewBox="0 0 9 9" enable-background="new 0 0 9 9" xml:space="preserve">
<g id="그룹_1128_1_" transform="rotate(-45 4.207 6.743)">
	<path id="사각형_1353_1_" fill="#FFFFFF" d="M6,0.073L6,0.073c0.487,0,0.882,0.395,0.882,0.882l0.001,8.819
		C6.881,10.261,6.486,10.656,6,10.656l0,0c-0.489,0-0.883-0.396-0.883-0.883l0.001-8.818C5.118,0.467,5.513,0.073,6,0.073z"/>
	<path id="사각형_1354_1_" fill="#FFFFFF" d="M11.291,5.363L11.291,5.363c0.001,0.488-0.395,0.881-0.881,0.884L1.59,6.246
		c-0.486,0-0.883-0.394-0.882-0.882l0,0C0.707,4.877,1.103,4.483,1.591,4.482h8.819C10.896,4.481,11.291,4.876,11.291,5.363z"/>
</g>
</svg>
