<?xml version="1.0" encoding="utf-8"?>
<!-- Generator: Adobe Illustrator 16.0.0, SVG Export Plug-In . SVG Version: 6.00 Build 0)  -->
<!DOCTYPE svg PUBLIC "-//W3C//DTD SVG 1.1//EN" "http://www.w3.org/Graphics/SVG/1.1/DTD/svg11.dtd">
<svg version="1.1" id="레이어_1" xmlns="http://www.w3.org/2000/svg" xmlns:xlink="http://www.w3.org/1999/xlink" x="0px"
	 y="0px" width="146.154px" height="100px" viewBox="1.167 0.75 146.154 100" enable-background="new 1.167 0.75 146.154 100"
	 xml:space="preserve">
<path fill="none" stroke="#FFFFFF" stroke-width="2" stroke-linecap="round" d="M3.5,6.5h5"/>
<g id="그룹_962" transform="translate(-1157 -387.001)">
	<g id="그룹_960" transform="translate(1070.666 264.238)">
		<g id="Floor" transform="translate(86.334 220.346)">
			<g id="그룹_936" transform="translate(0)">
				<g id="그룹_935">
					<path id="패스_1329" fill="#263238" d="M147.327,0.804c0,0.037-32.724,0.063-73.077,0.063
						c-40.353,0-73.084-0.026-73.084-0.063c0-0.035,32.715-0.064,73.084-0.064S147.327,0.769,147.327,0.804z"/>
				</g>
			</g>
		</g>
		<g id="Plant" transform="translate(92.906 201.124)">
			<g id="그룹_946" transform="translate(0)">
				<g id="그룹_937" transform="translate(2.13)">
					<path id="패스_1330_1_" fill="#9FD9F6" d="M2.306,0.737c1.057,0.076,2.03,0.576,2.706,1.387
						c0.665,0.812,1.136,1.758,1.377,2.775c0.421,2.057,0.299,4.188-0.354,6.184c-2.107-0.754-3.407-3-4-4.184
						C1.105,5.03,0.56,1.087,2.304,0.739"/>
				</g>
				<g id="그룹_938" transform="translate(9.504 7.12)">
					<path id="패스_1331" fill="#9FD9F6" d="M1.694,6.318C1.048,5.32,0.991,4.049,1.539,2.996C2.101,1.96,3.056,1.193,4.186,0.867
						c0.508-0.205,1.075-0.178,1.562,0.076c0.408,0.311,0.617,0.815,0.545,1.328c-0.078,0.5-0.287,0.969-0.605,1.36
						C4.82,5.071,3.357,6.056,1.697,6.32"/>
				</g>
				<g id="그룹_940" transform="translate(9.649 9.473)">
					<g id="그룹_939">
						<path id="패스_1332" fill="#263238" d="M1.781,10.478c-0.043-0.131-0.074-0.266-0.094-0.397L1.469,8.97
							c-0.277-1.221-0.355-2.48-0.23-3.729c0.146-1.258,0.623-2.448,1.383-3.463C2.856,1.478,3.125,1.21,3.423,0.969
							c0.08-0.063,0.164-0.123,0.25-0.18c0.063-0.039,0.095-0.06,0.097-0.056c-0.393,0.33-0.746,0.699-1.063,1.103
							C1.985,2.844,1.532,4.018,1.388,5.248c-0.119,1.229-0.06,2.477,0.188,3.688c0.075,0.471,0.136,0.854,0.171,1.117
							C1.769,10.195,1.782,10.336,1.781,10.478z"/>
					</g>
				</g>
				<g id="그룹_942" transform="translate(3.948 2.964)">
					<g id="그룹_941">
						<path id="패스_1333" fill="#263238" d="M1.168,0.739c0.03,0.049,0.063,0.104,0.084,0.158L1.47,1.368
							c0.186,0.408,0.448,1,0.766,1.74C2.872,4.583,3.72,6.634,4.607,8.917c0.888,2.285,1.645,4.373,2.167,5.894
							c0.264,0.758,0.471,1.373,0.607,1.799l0.153,0.494c0.021,0.057,0.037,0.115,0.045,0.174c-0.026-0.051-0.055-0.107-0.069-0.166
							l-0.185-0.482l-0.651-1.78c-0.55-1.511-1.319-3.588-2.204-5.873C3.583,6.693,2.749,4.638,2.14,3.153L1.415,1.396l-0.189-0.48
							C1.2,0.855,1.18,0.798,1.168,0.739z"/>
					</g>
				</g>
				<g id="그룹_943" transform="translate(0 11.162)">
					<path id="패스_1334" fill="#9FD9F6" d="M8.927,4.483C7.642,2.337,5.404,0.952,2.915,0.748
						C2.292,0.702,1.542,0.81,1.264,1.366c-0.18,0.615,0.024,1.277,0.521,1.686c1.847,1.935,4.674,2.563,7.168,1.603"/>
				</g>
				<g id="그룹_945" transform="translate(2.696 12.835)">
					<g id="그룹_944">
						<path id="패스_1335" fill="#263238" d="M1.167,0.743C1.3,0.736,1.431,0.74,1.56,0.757C1.712,0.77,1.865,0.784,2.015,0.813
							c0.176,0.033,0.38,0.053,0.6,0.11c0.24,0.056,0.479,0.119,0.71,0.199c0.271,0.086,0.534,0.188,0.792,0.301
							c0.592,0.269,1.15,0.601,1.668,0.988c0.512,0.4,0.977,0.859,1.379,1.365C7.342,3.999,7.501,4.23,7.65,4.47
							c0.133,0.205,0.254,0.422,0.361,0.645c0.092,0.18,0.175,0.365,0.248,0.555C8.32,5.811,8.369,5.952,8.411,6.102
							c0.046,0.123,0.079,0.25,0.103,0.377C8.483,6.49,8.331,5.951,7.911,5.164C7.801,4.949,7.677,4.74,7.54,4.539
							C7.391,4.308,7.227,4.078,7.052,3.862C6.648,3.369,6.191,2.922,5.69,2.53C5.181,2.145,4.634,1.817,4.056,1.547
							C3.803,1.435,3.542,1.328,3.281,1.239C3.052,1.157,2.818,1.086,2.582,1.026C1.721,0.806,1.165,0.775,1.167,0.743z"/>
					</g>
				</g>
			</g>
		</g>
		<g id="Folder" transform="translate(112.894 142.926)">
			<g id="그룹_951" transform="translate(0 0)">
				<g id="그룹_947" transform="translate(26.607 10.482)">
					<path id="패스_1336" fill="#003288" d="M13.482,4.519L2.59,60.506l-1.424,7.332l72.7-0.356
						c3.263-0.019,6.154-2.912,7.199-7.22L93.958,7.406c0.8-3.27-0.952-6.666-3.428-6.663L16.947,0.82
						C15.329,0.818,13.908,2.333,13.482,4.519z"/>
				</g>
				<g id="그룹_948" transform="translate(29.607 10.482)" opacity="0.5">
					<path id="패스_1337" d="M10.482,4.519L-0.41,60.506l-1.424,7.332l72.7-0.356c3.263-0.019,6.154-2.912,7.199-7.22
						L90.958,7.406c0.8-3.27-0.952-6.666-3.428-6.663L13.947,0.82C12.329,0.818,10.908,2.333,10.482,4.519z"/>
				</g>
				<g id="그룹_949">
					<path id="패스_1338" fill="#006DBC" d="M93.503,67.198l-7.7-62.026c-0.229-2.461-2.259-4.363-4.729-4.433L64.194,0.797
						c-1.268,0.012-2.474,0.547-3.334,1.479l-8.015,8.521L5.901,11.039c-2.755,0.135-4.882,2.476-4.749,5.229
						c0.009,0.186,0.027,0.369,0.057,0.553l7.147,57.33c0.229,2.457,2.257,4.357,4.724,4.428l81.814-0.159
						c9.111,0.188,9.979-2.5,9.979-2.5C94.434,78.224,93.503,67.202,93.503,67.198z"/>
				</g>
				<g id="그룹_950" transform="translate(33.048 34.27)">
					<path id="패스_1339" fill="#FFFFFF" d="M25.178,20.514l-2.76,2.964L1.166,4.36l2.76-2.968L25.178,20.514z"/>
					<path id="패스_1340" fill="#FFFFFF" d="M21.262,0.739l3.05,2.742L5.083,24.127l-3.052-2.742L21.262,0.739z"/>
				</g>
			</g>
		</g>
		<g id="Speech_Bubble" transform="translate(208.265 122.762)">
			<g id="그룹_956" transform="translate(8.902 5.681)">
				<g id="그룹_953">
					<g id="그룹_952">
						<path id="패스_1341" fill="#006DBC" d="M3.698,9.14c-0.202-0.086-0.337-0.277-0.352-0.5L3.224,5.785
							C3.211,5.467,3.457,5.2,3.777,5.183C3.83,5.181,3.881,5.185,3.931,5.201c0.48,0.104,0.984,0.005,1.394-0.274
							c0.375-0.234,0.635-0.619,0.719-1.054C6.1,3.43,5.975,2.984,5.697,2.635C5.406,2.24,4.968,1.976,4.484,1.907
							C3.482,1.849,2.576,2.495,2.296,3.458C2.228,3.768,1.92,3.963,1.609,3.893C1.296,3.828,1.103,3.516,1.171,3.207
							c0.004-0.02,0.008-0.032,0.016-0.049C1.618,1.647,3.046,0.65,4.614,0.763c0.8,0.104,1.521,0.53,2,1.183
							c0.467,0.6,0.67,1.359,0.563,2.112C7.041,4.807,6.603,5.467,5.962,5.882C5.5,6.195,4.961,6.369,4.404,6.39l0.1,2.2
							c0.015,0.317-0.23,0.585-0.551,0.601c-0.085,0.005-0.17-0.014-0.249-0.047L3.698,9.14z"/>
					</g>
				</g>
				<g id="그룹_955" transform="translate(2.434 9.132)">
					<g id="그룹_954">
						<path id="패스_1342" fill="#006DBC" d="M2.107,1.178c0.018,0.262-0.178,0.482-0.438,0.5C1.411,1.699,1.189,1.5,1.169,1.242
							C1.151,0.983,1.349,0.758,1.607,0.741h0.001C1.865,0.724,2.089,0.919,2.107,1.178z"/>
					</g>
				</g>
			</g>
			<g id="그룹_959">
				<g id="그룹_958">
					<g id="그룹_957">
						<path id="패스_1343" fill="#263238" d="M15.143,1.06c0.058,0.026,0.118,0.048,0.179,0.064l0.528,0.167
							c0.286,0.087,0.564,0.189,0.84,0.314c0.161,0.073,0.345,0.131,0.521,0.231l0.573,0.308c0.964,0.553,1.835,1.252,2.58,2.074
							c2.464,2.764,3.26,6.636,2.085,10.146c-0.067,0.229-0.175,0.443-0.262,0.668c-0.086,0.229-0.188,0.45-0.309,0.662
							c-0.454,0.906-1.051,1.736-1.761,2.459c-1.56,1.604-3.598,2.657-5.808,3c-1.188,0.186-2.395,0.151-3.563-0.092
							c-1.215-0.227-2.375-0.68-3.423-1.336l-0.314-0.199l-0.044-0.024l-0.047,0.01l-5.557,1.205l0.119,0.156l2.637-4.183
							l0.032-0.052l-0.034-0.052c-0.924-1.433-1.479-3.065-1.619-4.765C2.282,8.896,3.333,6.018,5.384,3.92
							C6.22,3.067,7.193,2.365,8.261,1.843c1.56-0.758,3.283-1.106,5.017-1.014l0.8,0.063l0.58,0.1l0.355,0.062
							c0.041,0.009,0.082,0.014,0.123,0.014c-0.039-0.014-0.078-0.021-0.119-0.031l-0.354-0.071l-0.58-0.116l-0.809-0.077
							c-0.746-0.043-1.496-0.012-2.236,0.094C10.059,1.03,9.1,1.324,8.196,1.739c-1.088,0.523-2.08,1.229-2.932,2.086
							c-2.099,2.121-3.179,5.043-2.965,8.021c0.135,1.729,0.694,3.396,1.637,4.854v-0.1l-2.646,4.176l-0.133,0.211l0.252-0.056
							l5.56-1.2l-0.091-0.017l0.326,0.209c1.07,0.67,2.258,1.134,3.5,1.361c1.198,0.248,2.435,0.278,3.645,0.094
							c2.253-0.354,4.331-1.432,5.918-3.067c0.722-0.738,1.321-1.584,1.784-2.508c0.117-0.217,0.223-0.441,0.309-0.674
							c0.087-0.229,0.2-0.449,0.264-0.683c0.729-2.111,0.732-4.405,0.021-6.523c-0.456-1.396-1.202-2.673-2.19-3.755
							c-0.761-0.825-1.646-1.523-2.63-2.068l-0.582-0.3c-0.181-0.104-0.366-0.153-0.53-0.227c-0.273-0.121-0.561-0.222-0.852-0.301
							l-0.536-0.146C15.266,1.098,15.205,1.075,15.143,1.06z"/>
					</g>
				</g>
			</g>
		</g>
	</g>
</g>
</svg>
