<svg xmlns="http://www.w3.org/2000/svg" width="12" height="10.536" viewBox="0 0 12 10.536">
    <defs>
        <style>
            .cls-1{fill:#c5c6ca}
        </style>
    </defs>
    <g id="그룹_438" transform="rotate(90 288.42 12.322)">
        <path id="패스_715" d="M279.335 306.477l-1.283-1.283a1.188 1.188 0 0 0-1.669 1.669l1.282 1.282 1.67 1.67 1.282 1.282a1.188 1.188 0 0 0 1.669-1.669l-1.282-1.282" class="cls-1" transform="translate(0 -10.643)"/>
        <path id="패스_716" d="M289.492 308.146l-1.282 1.282a1.188 1.188 0 0 0 1.669 1.669l1.282-1.282 1.67-1.67 1.282-1.282a1.188 1.188 0 0 0-1.669-1.669l-1.282 1.282" class="cls-1" transform="translate(-7.765 -10.643)"/>
        <path id="패스_717" d="M279.335 290.309l-1.283-1.282a1.188 1.188 0 0 0-1.669 1.669l1.282 1.282 1.67 1.67 1.282 1.282a1.188 1.188 0 0 0 1.669-1.669l-1.282-1.282" class="cls-1"/>
        <path id="패스_718" d="M289.492 291.979l-1.282 1.282a1.188 1.188 0 0 0 1.669 1.669l1.282-1.282 1.67-1.67 1.282-1.282a1.188 1.188 0 0 0-1.669-1.669l-1.282 1.282" class="cls-1" transform="translate(-7.765)"/>
    </g>
</svg>
