<svg xmlns="http://www.w3.org/2000/svg" width="6.476" height="10.536" viewBox="0 0 6.476 10.536">
    <defs>
        <style>
            .cls-1{fill:#c5c6ca}
        </style>
    </defs>
    <g id="그룹_440" transform="translate(-1041 -879)">
        <path id="패스_758" d="M279.335 290.309l-1.283-1.282a1.188 1.188 0 0 0-1.669 1.669l1.282 1.282 1.67 1.67 1.282 1.282a1.188 1.188 0 0 0 1.669-1.669l-1.282-1.282" class="cls-1" transform="rotate(90 366.657 969.559)"/>
        <path id="패스_759" d="M289.492 291.979l-1.282 1.282a1.188 1.188 0 0 0 1.669 1.669l1.282-1.282 1.67-1.67 1.282-1.282a1.188 1.188 0 0 0-1.669-1.669l-1.282 1.282" class="cls-1" transform="rotate(90 370.54 965.676)"/>
    </g>
</svg>
