<svg xmlns="http://www.w3.org/2000/svg" width="6.476" height="10.536" viewBox="0 0 6.476 10.536">
    <defs>
        <style>
            .cls-1{fill:#c5c6ca}
        </style>
    </defs>
    <g id="그룹_442">
        <path id="패스_758" d="M3.238 4.907L1.955 6.19A1.124 1.124 0 0 1 .373 6.1a1.125 1.125 0 0 1-.087-1.58l1.282-1.282 1.67-1.67L4.52.286A1.125 1.125 0 0 1 6.1.373a1.124 1.124 0 0 1 .087 1.582l-1.28 1.282" class="cls-1" transform="rotate(90 3.238 3.238)"/>
        <path id="패스_759" d="M1.569 3.238L.286 1.955A1.124 1.124 0 0 1 .373.373 1.125 1.125 0 0 1 1.955.286l1.283 1.282 1.67 1.67L6.19 4.52A1.125 1.125 0 0 1 6.1 6.1a1.124 1.124 0 0 1-1.58.09L3.238 4.907" class="cls-1" transform="rotate(90 1.208 5.268)"/>
    </g>
</svg>
