<?xml version="1.0" encoding="utf-8"?>
<!-- Generator: Adobe Illustrator 16.0.0, SVG Export Plug-In . SVG Version: 6.00 Build 0)  -->
<!DOCTYPE svg PUBLIC "-//W3C//DTD SVG 1.1//EN" "http://www.w3.org/Graphics/SVG/1.1/DTD/svg11.dtd">
<svg version="1.1" id="레이어_1" xmlns="http://www.w3.org/2000/svg" xmlns:xlink="http://www.w3.org/1999/xlink" x="0px"
	 y="0px" width="81.816px" height="60px" viewBox="0 0 81.816 60" enable-background="new 0 0 81.816 60" xml:space="preserve">
<g>
	<path fill="#006DBC" d="M78.26,33.471c-2.281-2.912-5.494-4.95-9.1-5.772c3.258-5.059,1.799-11.796-3.258-15.056
		c-1.763-1.134-3.812-1.733-5.9-1.732c-2.604-0.035-5.129,0.904-7.074,2.642C49.569,5.357,41.588,0.004,32.729,0.001
		c-5.806-0.09-11.39,2.223-15.429,6.393c-4.168,4.039-6.479,9.623-6.391,15.429c0,0.367,0.026,0.979,0.084,1.831
		c-6.703,3.132-10.988,9.857-10.992,17.26c-0.076,5.075,1.951,9.956,5.601,13.482c3.528,3.649,8.409,5.676,13.485,5.604h46.369
		c9.027,0.008,16.352-7.305,16.359-16.331c0.004-3.703-1.252-7.299-3.563-10.197H78.26z M54.142,32.321
		c-0.252,0.26-0.598,0.401-0.959,0.397h-9.545v15c-0.012,0.748-0.612,1.354-1.36,1.362h-8.187c-0.748-0.011-1.354-0.614-1.363-1.362
		v-15h-9.545c-0.725,0.029-1.334-0.534-1.36-1.258c-0.002-0.035-0.002-0.07,0-0.105c0.016-0.381,0.166-0.741,0.426-1.021
		l14.955-14.952c0.555-0.511,1.408-0.511,1.961,0l15,15c0.258,0.261,0.395,0.616,0.381,0.981
		C54.547,31.724,54.4,32.071,54.142,32.321L54.142,32.321L54.142,32.321z"/>
</g>
</svg>
