<?xml version="1.0" encoding="utf-8"?>
<!-- Generator: Adobe Illustrator 16.0.0, SVG Export Plug-In . SVG Version: 6.00 Build 0)  -->
<!DOCTYPE svg PUBLIC "-//W3C//DTD SVG 1.1//EN" "http://www.w3.org/Graphics/SVG/1.1/DTD/svg11.dtd">
<svg version="1.1" id="레이어_1" xmlns="http://www.w3.org/2000/svg" xmlns:xlink="http://www.w3.org/1999/xlink" x="0px"
	 y="0px" width="14.002px" height="11.999px" viewBox="0 0 14.002 11.999" enable-background="new 0 0 14.002 11.999"
	 xml:space="preserve">
<g>
	<path fill="#006DBC" d="M12.896,1.119c-1.438-1.471-3.796-1.498-5.267-0.06c-0.021,0.02-0.04,0.04-0.06,0.06
		c-0.723,0.71-1.123,1.688-1.106,2.7v1.637H0.808C0.592,5.453,0.385,5.539,0.236,5.695C0.081,5.849-0.004,6.059,0,6.275v4.909
		c-0.004,0.218,0.081,0.428,0.236,0.58c0.149,0.154,0.356,0.24,0.572,0.236h8.077c0.216,0.004,0.423-0.082,0.572-0.236
		c0.154-0.152,0.239-0.362,0.236-0.58V6.271c0.003-0.217-0.082-0.427-0.236-0.58C9.307,5.537,9.1,5.452,8.885,5.456H8.077v-1.64
		C8.067,3.237,8.295,2.68,8.708,2.273c0.825-0.841,2.177-0.854,3.018-0.028c0.01,0.01,0.019,0.021,0.028,0.028
		c0.412,0.406,0.641,0.964,0.631,1.543v2.182c-0.002,0.146,0.057,0.283,0.16,0.384c0.098,0.104,0.236,0.163,0.379,0.162h0.539
		c0.144,0.001,0.281-0.058,0.379-0.162c0.104-0.101,0.162-0.238,0.16-0.384V3.816C14.018,2.804,13.617,1.828,12.896,1.119z"/>
</g>
</svg>
