<?xml version="1.0" encoding="utf-8"?>
<!-- Generator: Adobe Illustrator 16.0.0, SVG Export Plug-In . SVG Version: 6.00 Build 0)  -->
<!DOCTYPE svg PUBLIC "-//W3C//DTD SVG 1.1//EN" "http://www.w3.org/Graphics/SVG/1.1/DTD/svg11.dtd">
<svg version="1.1" id="레이어_1" xmlns="http://www.w3.org/2000/svg" xmlns:xlink="http://www.w3.org/1999/xlink" x="0px"
	 y="0px" width="9.999px" height="11.999px" viewBox="0 0 9.999 11.999" enable-background="new 0 0 9.999 11.999"
	 xml:space="preserve">
<path id="패스_794" fill="#006DBC" d="M9.756,5.69C9.6,5.536,9.387,5.45,9.166,5.454H8.888V3.815
	C8.9,2.797,8.485,1.82,7.742,1.125c-1.521-1.5-3.965-1.5-5.486,0C1.514,1.82,1.099,2.799,1.11,3.815v1.64H0.833
	c-0.221-0.004-0.434,0.082-0.59,0.236C0.085,5.843-0.004,6.053,0,6.271v4.91c-0.004,0.219,0.085,0.429,0.243,0.58
	c0.156,0.156,0.369,0.242,0.59,0.238h8.333c0.221,0.004,0.435-0.082,0.59-0.238c0.159-0.151,0.247-0.361,0.243-0.58V6.271
	C10.002,6.052,9.914,5.842,9.756,5.69z M7.226,5.453H2.781v-1.64C2.773,3.23,3.01,2.672,3.433,2.271
	c0.873-0.852,2.268-0.852,3.141,0c0.424,0.401,0.66,0.96,0.652,1.543V5.453z"/>
</svg>
